# xmcd
# Track frame offsets:
# 150
# 10813
# 26797
# 37511
# 54850
# 68890
# 83667
# 100987
# 115343
# 131883
#
# Disc length: 2009 seconds
# Revision: 0
# Processed by: cddbd v1.4PL0 Copyright (c) Steve Scherf et al.
# Submitted via: VisiTrax 2.9.5.180 - For more info visit www.synapsa.com
#
DISCID=7707d70a
DTITLE=Don and Annie Kidwell - From the streets of Bakersfield
DYEAR=1999
DGENRE=
TTITLE0=The game
TTITLE1=The first word in memory is me
TTITLE2=I'll never be a man again
TTITLE3=Somewhere between
TTITLE4=The storm
TTITLE5=Dancin' in my dreams
TTITLE6=This ain't no way to lie
TTITLE7=Leavin' time
TTITLE8=Lie to me again
TTITLE9=Where do we go from here Annie
EXTD=
EXTT0=
EXTT1=
EXTT2=
EXTT3=
EXTT4=
EXTT5=
EXTT6=
EXTT7=
EXTT8=
EXTT9=
PLAYORDER=
